# MagicaVoxel @ Ephtracy

# group
o 

# material
mtllib book1.mtl
usemtl palette

# normals
vn -1 0 0
vn 1 0 0
vn 0 0 1
vn 0 0 -1
vn 0 -1 0
vn 0 1 0

# texcoords
vt 0.0996094 0.5
vt 0.111328 0.5
vt 0.349609 0.5
vt 0.400391 0.5

# verts
v -1.4 0 1.3
v -1.4 0 -1.2
v -1.4 0.1 1.1
v -1.4 0.1 -1.2
v -1.4 0.5 1.1
v -1.4 0.5 -1.2
v -1.4 0.6 1.3
v -1.4 0.6 -1.2
v -1.3 0.1 1.1
v -1.3 0.1 -1.1
v -1.3 0.5 1.1
v -1.3 0.5 -1.1
v 1.5 0.1 1.1
v 1.5 0.1 -1.1
v 1.5 0.5 1.1
v 1.5 0.5 -1.1
v 1.6 0 1.3
v 1.6 0 -1.2
v 1.6 0.1 1.1
v 1.6 0.1 -1.2
v 1.6 0.5 1.1
v 1.6 0.5 -1.2
v 1.6 0.6 1.3
v 1.6 0.6 -1.2
v -1.4 0 1.3
v -1.4 0.6 1.3
v -0.5 0 1.3
v -0.5 0.6 1.3
v -0.3 0 1.3
v -0.3 0.6 1.3
v 0.5 0 1.3
v 0.5 0.6 1.3
v 0.7 0 1.3
v 0.7 0.6 1.3
v 1.6 0 1.3
v 1.6 0.6 1.3
v -1.4 0.1 1.1
v -1.4 0.5 1.1
v -1.3 0.1 1.1
v -1.3 0.5 1.1
v 1.5 0.1 1.1
v 1.5 0.5 1.1
v 1.6 0.1 1.1
v 1.6 0.5 1.1
v -1.3 0.1 -1.1
v -1.3 0.5 -1.1
v -0.5 0.1 -1.1
v -0.5 0.5 -1.1
v -0.3 0.1 -1.1
v -0.3 0.5 -1.1
v 0.5 0.1 -1.1
v 0.5 0.5 -1.1
v 0.7 0.1 -1.1
v 0.7 0.5 -1.1
v 1.5 0.1 -1.1
v 1.5 0.5 -1.1
v -1.4 0 -1.2
v -1.4 0.1 -1.2
v -1.4 0.5 -1.2
v -1.4 0.6 -1.2
v -0.5 0 -1.2
v -0.5 0.1 -1.2
v -0.5 0.5 -1.2
v -0.5 0.6 -1.2
v -0.3 0 -1.2
v -0.3 0.1 -1.2
v -0.3 0.5 -1.2
v -0.3 0.6 -1.2
v 0.5 0 -1.2
v 0.5 0.1 -1.2
v 0.5 0.5 -1.2
v 0.5 0.6 -1.2
v 0.7 0 -1.2
v 0.7 0.1 -1.2
v 0.7 0.5 -1.2
v 0.7 0.6 -1.2
v 1.6 0 -1.2
v 1.6 0.1 -1.2
v 1.6 0.5 -1.2
v 1.6 0.6 -1.2
v -1.4 0 1.3
v -0.5 0 1.3
v -0.3 0 1.3
v 0.5 0 1.3
v 0.7 0 1.3
v 1.6 0 1.3
v -1.4 0 -1.2
v -0.5 0 -1.2
v -0.3 0 -1.2
v 0.5 0 -1.2
v 0.7 0 -1.2
v 1.6 0 -1.2
v -1.4 0.5 1.1
v -1.3 0.5 1.1
v 1.5 0.5 1.1
v 1.6 0.5 1.1
v -1.3 0.5 -1.1
v -0.5 0.5 -1.1
v -0.3 0.5 -1.1
v 0.5 0.5 -1.1
v 0.7 0.5 -1.1
v 1.5 0.5 -1.1
v -1.4 0.5 -1.2
v -0.5 0.5 -1.2
v -0.3 0.5 -1.2
v 0.5 0.5 -1.2
v 0.7 0.5 -1.2
v 1.6 0.5 -1.2
v -1.4 0.1 1.1
v -1.3 0.1 1.1
v 1.5 0.1 1.1
v 1.6 0.1 1.1
v -1.3 0.1 -1.1
v -0.5 0.1 -1.1
v -0.3 0.1 -1.1
v 0.5 0.1 -1.1
v 0.7 0.1 -1.1
v 1.5 0.1 -1.1
v -1.4 0.1 -1.2
v -0.5 0.1 -1.2
v -0.3 0.1 -1.2
v 0.5 0.1 -1.2
v 0.7 0.1 -1.2
v 1.6 0.1 -1.2
v -1.4 0.6 1.3
v -0.5 0.6 1.3
v -0.3 0.6 1.3
v 0.5 0.6 1.3
v 0.7 0.6 1.3
v 1.6 0.6 1.3
v -1.4 0.6 -1.2
v -0.5 0.6 -1.2
v -0.3 0.6 -1.2
v 0.5 0.6 -1.2
v 0.7 0.6 -1.2
v 1.6 0.6 -1.2

# faces
f 3/2/1 2/2/1 1/2/1
f 4/2/1 2/2/1 3/2/1
f 5/2/1 3/2/1 1/2/1
f 7/2/1 5/2/1 1/2/1
f 7/2/1 6/2/1 5/2/1
f 8/2/1 6/2/1 7/2/1
f 11/3/1 10/3/1 9/3/1
f 12/3/1 10/3/1 11/3/1
f 13/3/2 14/3/2 15/3/2
f 15/3/2 14/3/2 16/3/2
f 17/2/2 18/2/2 19/2/2
f 19/2/2 18/2/2 20/2/2
f 17/2/2 19/2/2 21/2/2
f 17/2/2 21/2/2 23/2/2
f 21/2/2 22/2/2 23/2/2
f 23/2/2 22/2/2 24/2/2
f 27/2/3 26/2/3 25/2/3
f 28/2/3 26/2/3 27/2/3
f 29/4/3 28/4/3 27/4/3
f 30/4/3 28/4/3 29/4/3
f 31/1/3 30/1/3 29/1/3
f 32/1/3 30/1/3 31/1/3
f 33/4/3 32/4/3 31/4/3
f 34/4/3 32/4/3 33/4/3
f 35/2/3 34/2/3 33/2/3
f 36/2/3 34/2/3 35/2/3
f 37/2/4 38/2/4 39/2/4
f 39/2/4 38/2/4 40/2/4
f 41/2/4 42/2/4 43/2/4
f 43/2/4 42/2/4 44/2/4
f 45/3/4 46/3/4 47/3/4
f 47/3/4 46/3/4 48/3/4
f 47/3/4 48/3/4 49/3/4
f 49/3/4 48/3/4 50/3/4
f 49/3/4 50/3/4 51/3/4
f 51/3/4 50/3/4 52/3/4
f 51/3/4 52/3/4 53/3/4
f 53/3/4 52/3/4 54/3/4
f 53/3/4 54/3/4 55/3/4
f 55/3/4 54/3/4 56/3/4
f 57/2/4 58/2/4 61/2/4
f 61/2/4 58/2/4 62/2/4
f 59/2/4 60/2/4 63/2/4
f 63/2/4 60/2/4 64/2/4
f 61/4/4 62/4/4 65/4/4
f 65/4/4 62/4/4 66/4/4
f 63/4/4 64/4/4 67/4/4
f 67/4/4 64/4/4 68/4/4
f 65/1/4 66/1/4 69/1/4
f 69/1/4 66/1/4 70/1/4
f 67/1/4 68/1/4 71/1/4
f 71/1/4 68/1/4 72/1/4
f 69/4/4 70/4/4 73/4/4
f 73/4/4 70/4/4 74/4/4
f 71/4/4 72/4/4 75/4/4
f 75/4/4 72/4/4 76/4/4
f 73/2/4 74/2/4 77/2/4
f 77/2/4 74/2/4 78/2/4
f 75/2/4 76/2/4 79/2/4
f 79/2/4 76/2/4 80/2/4
f 87/2/5 82/2/5 81/2/5
f 88/4/5 83/4/5 82/4/5
f 88/2/5 82/2/5 87/2/5
f 89/1/5 84/1/5 83/1/5
f 89/4/5 83/4/5 88/4/5
f 90/4/5 85/4/5 84/4/5
f 90/1/5 84/1/5 89/1/5
f 91/2/5 86/2/5 85/2/5
f 91/4/5 85/4/5 90/4/5
f 92/2/5 86/2/5 91/2/5
f 97/2/5 94/2/5 93/2/5
f 102/2/5 96/2/5 95/2/5
f 103/2/5 97/2/5 93/2/5
f 103/2/5 98/2/5 97/2/5
f 104/4/5 99/4/5 98/4/5
f 104/2/5 98/2/5 103/2/5
f 105/1/5 100/1/5 99/1/5
f 105/4/5 99/4/5 104/4/5
f 106/4/5 101/4/5 100/4/5
f 106/1/5 100/1/5 105/1/5
f 107/2/5 102/2/5 101/2/5
f 107/4/5 101/4/5 106/4/5
f 108/2/5 96/2/5 102/2/5
f 108/2/5 102/2/5 107/2/5
f 109/2/6 110/2/6 113/2/6
f 111/2/6 112/2/6 118/2/6
f 109/2/6 113/2/6 119/2/6
f 113/2/6 114/2/6 119/2/6
f 114/4/6 115/4/6 120/4/6
f 119/2/6 114/2/6 120/2/6
f 115/1/6 116/1/6 121/1/6
f 120/4/6 115/4/6 121/4/6
f 116/4/6 117/4/6 122/4/6
f 121/1/6 116/1/6 122/1/6
f 117/2/6 118/2/6 123/2/6
f 122/4/6 117/4/6 123/4/6
f 118/2/6 112/2/6 124/2/6
f 123/2/6 118/2/6 124/2/6
f 125/2/6 126/2/6 131/2/6
f 126/4/6 127/4/6 132/4/6
f 131/2/6 126/2/6 132/2/6
f 127/1/6 128/1/6 133/1/6
f 132/4/6 127/4/6 133/4/6
f 128/4/6 129/4/6 134/4/6
f 133/1/6 128/1/6 134/1/6
f 129/2/6 130/2/6 135/2/6
f 134/4/6 129/4/6 135/4/6
f 135/2/6 130/2/6 136/2/6
