# MagicaVoxel @ Ephtracy

# group
o 

# material
mtllib chair.mtl
usemtl palette

# normals
vn -1 0 0
vn 1 0 0
vn 0 0 1
vn 0 0 -1
vn 0 -1 0
vn 0 1 0

# texcoords
vt 0.0136719 0.5
vt 0.302734 0.5
vt 0.310547 0.5

# verts
v -2 0 2
v -2 0 1.6
v -2 0 -1.6
v -2 0 -2
v -2 0.1 2
v -2 0.1 1.6
v -2 0.1 -1.6
v -2 0.1 -2
v -2 2.6 1.6
v -2 2.6 -1.6
v -2 2.8 -1.9
v -2 2.8 -2
v -2 2.9 1.6
v -2 2.9 -1.9
v -2 5.5 2
v -2 5.5 1.6
v -1.9 2.8 -1.9
v -1.9 2.8 -2
v -1.9 2.9 1.4
v -1.9 2.9 -1.8
v -1.9 2.9 -1.9
v -1.9 2.9 -2
v -1.9 3 1.4
v -1.9 3 -1.8
v -1.9 5.5 2
v -1.9 5.5 1.6
v -1.9 5.7 2
v -1.9 5.7 1.6
v -1.8 2.9 1.5
v -1.8 2.9 1.4
v -1.8 2.9 -1.8
v -1.8 2.9 -1.9
v -1.8 3 1.6
v -1.8 3 1.5
v -1.8 3 1.4
v -1.8 3 -1.8
v -1.8 3 -1.9
v -1.8 5.5 1.6
v -1.8 5.5 1.5
v -1.8 5.7 2
v -1.8 5.7 1.6
v -1.8 5.8 2
v -1.8 5.8 1.6
v -1.7 5.5 1.6
v -1.7 5.5 1.5
v -1.7 5.6 1.6
v -1.7 5.6 1.5
v -1.7 5.8 2
v -1.7 5.8 1.6
v -1.7 5.9 2
v -1.7 5.9 1.6
v -1.6 5.6 1.6
v -1.6 5.6 1.5
v -1.6 5.7 1.6
v -1.6 5.7 1.5
v -1.5 5.7 1.6
v -1.5 5.7 1.5
v -1.5 5.8 1.6
v -1.5 5.8 1.5
v -1.5 5.9 2
v -1.5 5.9 1.6
v -1.5 6 2
v -1.5 6 1.6
v -1.4 3 2
v -1.4 3 1.8
v -1.4 5.7 2
v -1.4 5.7 1.8
v -0.7 3 2
v -0.7 3 1.8
v -0.7 5.7 1.8
v -0.7 5.7 1.6
v -0.7 5.8 2
v -0.7 5.8 1.6
v -0.0999999 3 2
v -0.0999999 3 1.8
v -0.0999999 5.7 1.8
v -0.0999999 5.7 1.6
v -0.0999999 5.8 2
v -0.0999999 5.8 1.6
v 0.5 3 2
v 0.5 3 1.8
v 0.5 5.7 1.8
v 0.5 5.7 1.6
v 0.5 5.8 2
v 0.5 5.8 1.6
v 1.1 3 2
v 1.1 3 1.8
v 1.1 5.7 1.8
v 1.1 5.7 1.6
v 1.1 5.8 2
v 1.1 5.8 1.6
v 1.7 0 2
v 1.7 0 1.6
v 1.7 0 -1.6
v 1.7 0 -2
v 1.7 0.1 2
v 1.7 0.1 1.6
v 1.7 0.1 -1.6
v 1.7 0.1 -2
v 1.7 2.6 2
v 1.7 2.6 1.6
v 1.7 2.6 -1.6
v 1.7 2.6 -2
v 1.7 2.7 1.4
v 1.7 2.7 -1.6
v 1.7 2.8 1.4
v 1.7 2.8 -1.6
v 1.7 3 2
v 1.7 3 1.8
v 1.7 5.7 2
v 1.7 5.7 1.8
v -1.7 0 2
v -1.7 0 1.6
v -1.7 0 -1.6
v -1.7 0 -2
v -1.7 0.1 2
v -1.7 0.1 1.6
v -1.7 0.1 -1.6
v -1.7 0.1 -2
v -1.7 2.6 2
v -1.7 2.6 1.6
v -1.7 2.6 -1.6
v -1.7 2.6 -2
v -1.7 3 2
v -1.7 3 1.8
v -1.7 5.7 2
v -1.7 5.7 1.8
v -1.1 3 2
v -1.1 3 1.8
v -1.1 5.7 1.8
v -1.1 5.7 1.6
v -1.1 5.8 2
v -1.1 5.8 1.6
v -0.5 3 2
v -0.5 3 1.8
v -0.5 5.7 1.8
v -0.5 5.7 1.6
v -0.5 5.8 2
v -0.5 5.8 1.6
v -0.4 2.7 1.4
v -0.4 2.7 -1.6
v -0.4 2.8 1.4
v -0.4 2.8 -1.6
v 0.1 3 2
v 0.1 3 1.8
v 0.1 5.7 1.8
v 0.1 5.7 1.6
v 0.1 5.8 2
v 0.1 5.8 1.6
v 0.7 3 2
v 0.7 3 1.8
v 0.7 5.7 1.8
v 0.7 5.7 1.6
v 0.7 5.8 2
v 0.7 5.8 1.6
v 1.4 3 2
v 1.4 3 1.8
v 1.4 5.7 2
v 1.4 5.7 1.8
v 1.5 5.7 1.6
v 1.5 5.7 1.5
v 1.5 5.8 1.6
v 1.5 5.8 1.5
v 1.5 5.9 2
v 1.5 5.9 1.6
v 1.5 6 2
v 1.5 6 1.6
v 1.6 5.6 1.6
v 1.6 5.6 1.5
v 1.6 5.7 1.6
v 1.6 5.7 1.5
v 1.7 5.5 1.6
v 1.7 5.5 1.5
v 1.7 5.6 1.6
v 1.7 5.6 1.5
v 1.7 5.8 2
v 1.7 5.8 1.6
v 1.7 5.9 2
v 1.7 5.9 1.6
v 1.8 2.9 1.5
v 1.8 2.9 1.4
v 1.8 2.9 -1.8
v 1.8 2.9 -1.9
v 1.8 3 1.6
v 1.8 3 1.5
v 1.8 3 1.4
v 1.8 3 -1.8
v 1.8 3 -1.9
v 1.8 5.5 1.6
v 1.8 5.5 1.5
v 1.8 5.7 2
v 1.8 5.7 1.6
v 1.8 5.8 2
v 1.8 5.8 1.6
v 1.9 2.8 -1.9
v 1.9 2.8 -2
v 1.9 2.9 1.4
v 1.9 2.9 -1.8
v 1.9 2.9 -1.9
v 1.9 2.9 -2
v 1.9 3 1.4
v 1.9 3 -1.8
v 1.9 5.5 2
v 1.9 5.5 1.6
v 1.9 5.7 2
v 1.9 5.7 1.6
v 2 0 2
v 2 0 1.6
v 2 0 -1.6
v 2 0 -2
v 2 0.1 2
v 2 0.1 1.6
v 2 0.1 -1.6
v 2 0.1 -2
v 2 2.6 1.6
v 2 2.6 -1.6
v 2 2.8 -1.9
v 2 2.8 -2
v 2 2.9 1.6
v 2 2.9 -1.9
v 2 5.5 2
v 2 5.5 1.6
v -2 0 2
v -2 0.1 2
v -2 5.5 2
v -1.9 5.5 2
v -1.9 5.7 2
v -1.8 5.7 2
v -1.8 5.8 2
v -1.7 0 2
v -1.7 0.1 2
v -1.7 2.6 2
v -1.7 3 2
v -1.7 5.7 2
v -1.7 5.8 2
v -1.7 5.9 2
v -1.5 5.9 2
v -1.5 6 2
v -1.4 3 2
v -1.4 5.7 2
v -1.1 3 2
v -1.1 5.8 2
v -0.7 3 2
v -0.7 5.8 2
v -0.5 3 2
v -0.5 5.8 2
v -0.0999999 3 2
v -0.0999999 5.8 2
v 0.1 3 2
v 0.1 5.8 2
v 0.5 3 2
v 0.5 5.8 2
v 0.7 3 2
v 0.7 5.8 2
v 1.1 3 2
v 1.1 5.8 2
v 1.4 3 2
v 1.4 5.7 2
v 1.5 5.9 2
v 1.5 6 2
v 1.7 0 2
v 1.7 0.1 2
v 1.7 2.6 2
v 1.7 3 2
v 1.7 5.7 2
v 1.7 5.8 2
v 1.7 5.9 2
v 1.8 5.7 2
v 1.8 5.8 2
v 1.9 5.5 2
v 1.9 5.7 2
v 2 0 2
v 2 0.1 2
v 2 5.5 2
v -1.7 3 1.8
v -1.7 5.7 1.8
v -1.4 3 1.8
v -1.4 5.7 1.8
v -1.1 3 1.8
v -1.1 5.7 1.8
v -0.7 3 1.8
v -0.7 5.7 1.8
v -0.5 3 1.8
v -0.5 5.7 1.8
v -0.0999999 3 1.8
v -0.0999999 5.7 1.8
v 0.1 3 1.8
v 0.1 5.7 1.8
v 0.5 3 1.8
v 0.5 5.7 1.8
v 0.7 3 1.8
v 0.7 5.7 1.8
v 1.1 3 1.8
v 1.1 5.7 1.8
v 1.4 3 1.8
v 1.4 5.7 1.8
v 1.7 3 1.8
v 1.7 5.7 1.8
v -1.1 5.7 1.6
v -1.1 5.8 1.6
v -0.7 5.7 1.6
v -0.7 5.8 1.6
v -0.5 5.7 1.6
v -0.5 5.8 1.6
v -0.0999999 5.7 1.6
v -0.0999999 5.8 1.6
v 0.1 5.7 1.6
v 0.1 5.8 1.6
v 0.5 5.7 1.6
v 0.5 5.8 1.6
v 0.7 5.7 1.6
v 0.7 5.8 1.6
v 1.1 5.7 1.6
v 1.1 5.8 1.6
v -1.8 2.9 1.5
v -1.8 3 1.5
v 1.8 2.9 1.5
v 1.8 3 1.5
v -1.9 2.9 1.4
v -1.9 3 1.4
v -1.8 2.9 1.4
v -1.8 3 1.4
v 1.8 2.9 1.4
v 1.8 3 1.4
v 1.9 2.9 1.4
v 1.9 3 1.4
v -2 0 -1.6
v -2 0.1 -1.6
v -2 2.6 -1.6
v -1.7 0 -1.6
v -1.7 0.1 -1.6
v -1.7 2.6 -1.6
v -0.4 2.7 -1.6
v -0.4 2.8 -1.6
v 1.7 0 -1.6
v 1.7 0.1 -1.6
v 1.7 2.6 -1.6
v 1.7 2.7 -1.6
v 1.7 2.8 -1.6
v 2 0 -1.6
v 2 0.1 -1.6
v 2 2.6 -1.6
v -2 0 1.6
v -2 0.1 1.6
v -2 2.6 1.6
v -2 2.9 1.6
v -2 5.5 1.6
v -1.9 5.5 1.6
v -1.9 5.7 1.6
v -1.8 3 1.6
v -1.8 5.5 1.6
v -1.8 5.7 1.6
v -1.8 5.8 1.6
v -1.7 0 1.6
v -1.7 0.1 1.6
v -1.7 2.6 1.6
v -1.7 5.5 1.6
v -1.7 5.6 1.6
v -1.7 5.8 1.6
v -1.7 5.9 1.6
v -1.6 5.6 1.6
v -1.6 5.7 1.6
v -1.5 5.7 1.6
v -1.5 5.8 1.6
v -1.5 5.9 1.6
v -1.5 6 1.6
v 1.5 5.7 1.6
v 1.5 5.8 1.6
v 1.5 5.9 1.6
v 1.5 6 1.6
v 1.6 5.6 1.6
v 1.6 5.7 1.6
v 1.7 0 1.6
v 1.7 0.1 1.6
v 1.7 2.6 1.6
v 1.7 5.5 1.6
v 1.7 5.6 1.6
v 1.7 5.8 1.6
v 1.7 5.9 1.6
v 1.8 3 1.6
v 1.8 5.5 1.6
v 1.8 5.7 1.6
v 1.8 5.8 1.6
v 1.9 5.5 1.6
v 1.9 5.7 1.6
v 2 0 1.6
v 2 0.1 1.6
v 2 2.6 1.6
v 2 2.9 1.6
v 2 5.5 1.6
v -1.8 3 1.5
v -1.8 5.5 1.5
v -1.7 5.5 1.5
v -1.7 5.6 1.5
v -1.6 5.6 1.5
v -1.6 5.7 1.5
v -1.5 5.7 1.5
v -1.5 5.8 1.5
v 1.5 5.7 1.5
v 1.5 5.8 1.5
v 1.6 5.6 1.5
v 1.6 5.7 1.5
v 1.7 5.5 1.5
v 1.7 5.6 1.5
v 1.8 3 1.5
v 1.8 5.5 1.5
v -0.4 2.7 1.4
v -0.4 2.8 1.4
v 1.7 2.7 1.4
v 1.7 2.8 1.4
v -1.9 2.9 -1.8
v -1.9 3 -1.8
v -1.8 2.9 -1.8
v -1.8 3 -1.8
v 1.8 2.9 -1.8
v 1.8 3 -1.8
v 1.9 2.9 -1.8
v 1.9 3 -1.8
v -2 2.8 -1.9
v -2 2.9 -1.9
v -1.9 2.8 -1.9
v -1.9 2.9 -1.9
v -1.8 2.9 -1.9
v -1.8 3 -1.9
v 1.8 2.9 -1.9
v 1.8 3 -1.9
v 1.9 2.8 -1.9
v 1.9 2.9 -1.9
v 2 2.8 -1.9
v 2 2.9 -1.9
v -2 0 -2
v -2 0.1 -2
v -2 2.8 -2
v -1.9 2.8 -2
v -1.9 2.9 -2
v -1.7 0 -2
v -1.7 0.1 -2
v -1.7 2.6 -2
v 1.7 0 -2
v 1.7 0.1 -2
v 1.7 2.6 -2
v 1.9 2.8 -2
v 1.9 2.9 -2
v 2 0 -2
v 2 0.1 -2
v 2 2.8 -2
v -2 0 2
v -1.7 0 2
v 1.7 0 2
v 2 0 2
v -2 0 1.6
v -1.7 0 1.6
v 1.7 0 1.6
v 2 0 1.6
v -2 0 -1.6
v -1.7 0 -1.6
v 1.7 0 -1.6
v 2 0 -1.6
v -2 0 -2
v -1.7 0 -2
v 1.7 0 -2
v 2 0 -2
v -1.7 2.6 2
v 1.7 2.6 2
v -2 2.6 1.6
v -1.7 2.6 1.6
v 1.7 2.6 1.6
v 2 2.6 1.6
v -2 2.6 -1.6
v -1.7 2.6 -1.6
v 1.7 2.6 -1.6
v 2 2.6 -1.6
v -1.7 2.6 -2
v 1.7 2.6 -2
v -0.4 2.8 1.4
v 1.7 2.8 1.4
v -0.4 2.8 -1.6
v 1.7 2.8 -1.6
v -1.8 3 1.6
v 1.8 3 1.6
v -1.8 3 1.5
v 1.8 3 1.5
v -1.7 5.7 2
v -1.4 5.7 2
v 1.4 5.7 2
v 1.7 5.7 2
v -1.7 5.7 1.8
v -1.4 5.7 1.8
v 1.4 5.7 1.8
v 1.7 5.7 1.8
v -1.1 5.8 2
v -0.7 5.8 2
v -0.5 5.8 2
v -0.0999999 5.8 2
v 0.1 5.8 2
v 0.5 5.8 2
v 0.7 5.8 2
v 1.1 5.8 2
v -1.1 5.8 1.6
v -0.7 5.8 1.6
v -0.5 5.8 1.6
v -0.0999999 5.8 1.6
v 0.1 5.8 1.6
v 0.5 5.8 1.6
v 0.7 5.8 1.6
v 1.1 5.8 1.6
v -0.4 2.7 1.4
v 1.7 2.7 1.4
v -0.4 2.7 -1.6
v 1.7 2.7 -1.6
v -2 2.8 -1.9
v -1.9 2.8 -1.9
v 1.9 2.8 -1.9
v 2 2.8 -1.9
v -2 2.8 -2
v -1.9 2.8 -2
v 1.9 2.8 -2
v 2 2.8 -2
v -2 2.9 1.6
v 2 2.9 1.6
v -1.8 2.9 1.5
v 1.8 2.9 1.5
v -1.9 2.9 1.4
v -1.8 2.9 1.4
v 1.8 2.9 1.4
v 1.9 2.9 1.4
v -1.9 2.9 -1.8
v -1.8 2.9 -1.8
v 1.8 2.9 -1.8
v 1.9 2.9 -1.8
v -2 2.9 -1.9
v -1.9 2.9 -1.9
v -1.8 2.9 -1.9
v 1.8 2.9 -1.9
v 1.9 2.9 -1.9
v 2 2.9 -1.9
v -1.9 2.9 -2
v 1.9 2.9 -2
v -1.7 3 2
v -1.4 3 2
v -1.1 3 2
v -0.7 3 2
v -0.5 3 2
v -0.0999999 3 2
v 0.1 3 2
v 0.5 3 2
v 0.7 3 2
v 1.1 3 2
v 1.4 3 2
v 1.7 3 2
v -1.7 3 1.8
v -1.4 3 1.8
v -1.1 3 1.8
v -0.7 3 1.8
v -0.5 3 1.8
v -0.0999999 3 1.8
v 0.1 3 1.8
v 0.5 3 1.8
v 0.7 3 1.8
v 1.1 3 1.8
v 1.4 3 1.8
v 1.7 3 1.8
v -1.8 3 1.5
v 1.8 3 1.5
v -1.9 3 1.4
v -1.8 3 1.4
v 1.8 3 1.4
v 1.9 3 1.4
v -1.9 3 -1.8
v -1.8 3 -1.8
v 1.8 3 -1.8
v 1.9 3 -1.8
v -1.8 3 -1.9
v 1.8 3 -1.9
v -2 5.5 2
v -1.9 5.5 2
v 1.9 5.5 2
v 2 5.5 2
v -2 5.5 1.6
v -1.9 5.5 1.6
v -1.8 5.5 1.6
v -1.7 5.5 1.6
v 1.7 5.5 1.6
v 1.8 5.5 1.6
v 1.9 5.5 1.6
v 2 5.5 1.6
v -1.8 5.5 1.5
v -1.7 5.5 1.5
v 1.7 5.5 1.5
v 1.8 5.5 1.5
v -1.7 5.6 1.6
v -1.6 5.6 1.6
v 1.6 5.6 1.6
v 1.7 5.6 1.6
v -1.7 5.6 1.5
v -1.6 5.6 1.5
v 1.6 5.6 1.5
v 1.7 5.6 1.5
v -1.9 5.7 2
v -1.8 5.7 2
v 1.8 5.7 2
v 1.9 5.7 2
v -1.1 5.7 1.8
v -0.7 5.7 1.8
v -0.5 5.7 1.8
v -0.0999999 5.7 1.8
v 0.1 5.7 1.8
v 0.5 5.7 1.8
v 0.7 5.7 1.8
v 1.1 5.7 1.8
v -1.9 5.7 1.6
v -1.8 5.7 1.6
v -1.6 5.7 1.6
v -1.5 5.7 1.6
v -1.1 5.7 1.6
v -0.7 5.7 1.6
v -0.5 5.7 1.6
v -0.0999999 5.7 1.6
v 0.1 5.7 1.6
v 0.5 5.7 1.6
v 0.7 5.7 1.6
v 1.1 5.7 1.6
v 1.5 5.7 1.6
v 1.6 5.7 1.6
v 1.8 5.7 1.6
v 1.9 5.7 1.6
v -1.6 5.7 1.5
v -1.5 5.7 1.5
v 1.5 5.7 1.5
v 1.6 5.7 1.5
v -1.8 5.8 2
v -1.7 5.8 2
v 1.7 5.8 2
v 1.8 5.8 2
v -1.8 5.8 1.6
v -1.7 5.8 1.6
v -1.5 5.8 1.6
v 1.5 5.8 1.6
v 1.7 5.8 1.6
v 1.8 5.8 1.6
v -1.5 5.8 1.5
v 1.5 5.8 1.5
v -1.7 5.9 2
v -1.5 5.9 2
v 1.5 5.9 2
v 1.7 5.9 2
v -1.7 5.9 1.6
v -1.5 5.9 1.6
v 1.5 5.9 1.6
v 1.7 5.9 1.6
v -1.5 6 2
v 1.5 6 2
v -1.5 6 1.6
v 1.5 6 1.6

# faces
f 5/3/1 2/3/1 1/3/1
f 6/3/1 2/3/1 5/3/1
f 7/3/1 4/3/1 3/3/1
f 8/3/1 4/3/1 7/3/1
f 9/2/1 6/2/1 5/2/1
f 10/2/1 8/2/1 7/2/1
f 11/2/1 8/2/1 10/2/1
f 11/2/1 10/2/1 9/2/1
f 12/2/1 8/2/1 11/2/1
f 13/2/1 9/2/1 5/2/1
f 13/2/1 11/2/1 9/2/1
f 14/2/1 11/2/1 13/2/1
f 15/2/1 13/2/1 5/2/1
f 16/2/1 13/2/1 15/2/1
f 21/2/1 18/2/1 17/2/1
f 22/2/1 18/2/1 21/2/1
f 23/1/1 20/1/1 19/1/1
f 24/1/1 20/1/1 23/1/1
f 27/2/1 26/2/1 25/2/1
f 28/2/1 26/2/1 27/2/1
f 34/1/1 30/1/1 29/1/1
f 35/1/1 30/1/1 34/1/1
f 36/1/1 32/1/1 31/1/1
f 37/1/1 32/1/1 36/1/1
f 38/1/1 34/1/1 33/1/1
f 39/1/1 34/1/1 38/1/1
f 42/2/1 41/2/1 40/2/1
f 43/2/1 41/2/1 42/2/1
f 46/1/1 45/1/1 44/1/1
f 47/1/1 45/1/1 46/1/1
f 50/2/1 49/2/1 48/2/1
f 51/2/1 49/2/1 50/2/1
f 54/1/1 53/1/1 52/1/1
f 55/1/1 53/1/1 54/1/1
f 58/1/1 57/1/1 56/1/1
f 59/1/1 57/1/1 58/1/1
f 62/2/1 61/2/1 60/2/1
f 63/2/1 61/2/1 62/2/1
f 66/2/1 65/2/1 64/2/1
f 67/2/1 65/2/1 66/2/1
f 70/2/1 69/2/1 68/2/1
f 72/2/1 70/2/1 68/2/1
f 72/2/1 71/2/1 70/2/1
f 73/2/1 71/2/1 72/2/1
f 76/2/1 75/2/1 74/2/1
f 78/2/1 76/2/1 74/2/1
f 78/2/1 77/2/1 76/2/1
f 79/2/1 77/2/1 78/2/1
f 82/2/1 81/2/1 80/2/1
f 84/2/1 82/2/1 80/2/1
f 84/2/1 83/2/1 82/2/1
f 85/2/1 83/2/1 84/2/1
f 88/2/1 87/2/1 86/2/1
f 90/2/1 88/2/1 86/2/1
f 90/2/1 89/2/1 88/2/1
f 91/2/1 89/2/1 90/2/1
f 96/3/1 93/3/1 92/3/1
f 97/3/1 93/3/1 96/3/1
f 98/3/1 95/3/1 94/3/1
f 99/3/1 95/3/1 98/3/1
f 100/2/1 97/2/1 96/2/1
f 101/2/1 97/2/1 100/2/1
f 102/2/1 99/2/1 98/2/1
f 103/2/1 99/2/1 102/2/1
f 106/2/1 105/2/1 104/2/1
f 107/2/1 105/2/1 106/2/1
f 110/2/1 109/2/1 108/2/1
f 111/2/1 109/2/1 110/2/1
f 112/3/2 113/3/2 116/3/2
f 116/3/2 113/3/2 117/3/2
f 114/3/2 115/3/2 118/3/2
f 118/3/2 115/3/2 119/3/2
f 116/2/2 117/2/2 120/2/2
f 120/2/2 117/2/2 121/2/2
f 118/2/2 119/2/2 122/2/2
f 122/2/2 119/2/2 123/2/2
f 124/2/2 125/2/2 126/2/2
f 126/2/2 125/2/2 127/2/2
f 128/2/2 129/2/2 130/2/2
f 128/2/2 130/2/2 132/2/2
f 130/2/2 131/2/2 132/2/2
f 132/2/2 131/2/2 133/2/2
f 134/2/2 135/2/2 136/2/2
f 134/2/2 136/2/2 138/2/2
f 136/2/2 137/2/2 138/2/2
f 138/2/2 137/2/2 139/2/2
f 140/2/2 141/2/2 142/2/2
f 142/2/2 141/2/2 143/2/2
f 144/2/2 145/2/2 146/2/2
f 144/2/2 146/2/2 148/2/2
f 146/2/2 147/2/2 148/2/2
f 148/2/2 147/2/2 149/2/2
f 150/2/2 151/2/2 152/2/2
f 150/2/2 152/2/2 154/2/2
f 152/2/2 153/2/2 154/2/2
f 154/2/2 153/2/2 155/2/2
f 156/2/2 157/2/2 158/2/2
f 158/2/2 157/2/2 159/2/2
f 160/1/2 161/1/2 162/1/2
f 162/1/2 161/1/2 163/1/2
f 164/2/2 165/2/2 166/2/2
f 166/2/2 165/2/2 167/2/2
f 168/1/2 169/1/2 170/1/2
f 170/1/2 169/1/2 171/1/2
f 172/1/2 173/1/2 174/1/2
f 174/1/2 173/1/2 175/1/2
f 176/2/2 177/2/2 178/2/2
f 178/2/2 177/2/2 179/2/2
f 180/1/2 181/1/2 185/1/2
f 185/1/2 181/1/2 186/1/2
f 182/1/2 183/1/2 187/1/2
f 187/1/2 183/1/2 188/1/2
f 184/1/2 185/1/2 189/1/2
f 189/1/2 185/1/2 190/1/2
f 191/2/2 192/2/2 193/2/2
f 193/2/2 192/2/2 194/2/2
f 195/2/2 196/2/2 199/2/2
f 199/2/2 196/2/2 200/2/2
f 197/1/2 198/1/2 201/1/2
f 201/1/2 198/1/2 202/1/2
f 203/2/2 204/2/2 205/2/2
f 205/2/2 204/2/2 206/2/2
f 207/3/2 208/3/2 211/3/2
f 211/3/2 208/3/2 212/3/2
f 209/3/2 210/3/2 213/3/2
f 213/3/2 210/3/2 214/3/2
f 211/2/2 212/2/2 215/2/2
f 213/2/2 214/2/2 216/2/2
f 216/2/2 214/2/2 217/2/2
f 215/2/2 216/2/2 217/2/2
f 217/2/2 214/2/2 218/2/2
f 211/2/2 215/2/2 219/2/2
f 215/2/2 217/2/2 219/2/2
f 219/2/2 217/2/2 220/2/2
f 211/2/2 219/2/2 221/2/2
f 221/2/2 219/2/2 222/2/2
f 226/2/3 225/2/3 224/2/3
f 228/2/3 227/2/3 226/2/3
f 230/3/3 224/3/3 223/3/3
f 231/2/3 229/2/3 228/2/3
f 231/3/3 224/3/3 230/3/3
f 231/2/3 226/2/3 224/2/3
f 231/2/3 228/2/3 226/2/3
f 232/2/3 229/2/3 231/2/3
f 233/2/3 229/2/3 232/2/3
f 234/2/3 229/2/3 233/2/3
f 235/2/3 229/2/3 234/2/3
f 237/2/3 236/2/3 235/2/3
f 237/2/3 235/2/3 234/2/3
f 239/2/3 233/2/3 232/2/3
f 240/2/3 238/2/3 237/2/3
f 240/2/3 237/2/3 234/2/3
f 241/2/3 239/2/3 232/2/3
f 241/2/3 240/2/3 239/2/3
f 242/2/3 238/2/3 240/2/3
f 242/2/3 240/2/3 241/2/3
f 243/2/3 241/2/3 232/2/3
f 244/2/3 238/2/3 242/2/3
f 245/2/3 243/2/3 232/2/3
f 245/2/3 244/2/3 243/2/3
f 246/2/3 238/2/3 244/2/3
f 246/2/3 244/2/3 245/2/3
f 247/2/3 245/2/3 232/2/3
f 248/2/3 238/2/3 246/2/3
f 249/2/3 247/2/3 232/2/3
f 249/2/3 248/2/3 247/2/3
f 250/2/3 238/2/3 248/2/3
f 250/2/3 248/2/3 249/2/3
f 251/2/3 249/2/3 232/2/3
f 252/2/3 238/2/3 250/2/3
f 253/2/3 251/2/3 232/2/3
f 253/2/3 252/2/3 251/2/3
f 254/2/3 238/2/3 252/2/3
f 254/2/3 252/2/3 253/2/3
f 255/2/3 253/2/3 232/2/3
f 256/2/3 238/2/3 254/2/3
f 257/2/3 255/2/3 232/2/3
f 257/2/3 256/2/3 255/2/3
f 258/2/3 256/2/3 257/2/3
f 259/2/3 238/2/3 256/2/3
f 259/2/3 256/2/3 258/2/3
f 260/2/3 238/2/3 259/2/3
f 263/2/3 257/2/3 232/2/3
f 264/2/3 257/2/3 263/2/3
f 265/2/3 259/2/3 258/2/3
f 266/2/3 259/2/3 265/2/3
f 267/2/3 259/2/3 266/2/3
f 268/2/3 264/2/3 263/2/3
f 268/2/3 263/2/3 262/2/3
f 268/2/3 266/2/3 265/2/3
f 268/2/3 265/2/3 264/2/3
f 269/2/3 266/2/3 268/2/3
f 270/2/3 268/2/3 262/2/3
f 271/2/3 268/2/3 270/2/3
f 272/3/3 262/3/3 261/3/3
f 273/2/3 270/2/3 262/2/3
f 273/3/3 262/3/3 272/3/3
f 274/2/3 270/2/3 273/2/3
f 277/1/3 276/1/3 275/1/3
f 278/1/3 276/1/3 277/1/3
f 281/1/3 280/1/3 279/1/3
f 282/1/3 280/1/3 281/1/3
f 285/1/3 284/1/3 283/1/3
f 286/1/3 284/1/3 285/1/3
f 289/1/3 288/1/3 287/1/3
f 290/1/3 288/1/3 289/1/3
f 293/1/3 292/1/3 291/1/3
f 294/1/3 292/1/3 293/1/3
f 297/1/3 296/1/3 295/1/3
f 298/1/3 296/1/3 297/1/3
f 301/1/3 300/1/3 299/1/3
f 302/1/3 300/1/3 301/1/3
f 305/1/3 304/1/3 303/1/3
f 306/1/3 304/1/3 305/1/3
f 309/1/3 308/1/3 307/1/3
f 310/1/3 308/1/3 309/1/3
f 313/1/3 312/1/3 311/1/3
f 314/1/3 312/1/3 313/1/3
f 317/1/3 316/1/3 315/1/3
f 318/1/3 316/1/3 317/1/3
f 321/1/3 320/1/3 319/1/3
f 322/1/3 320/1/3 321/1/3
f 325/1/3 324/1/3 323/1/3
f 326/1/3 324/1/3 325/1/3
f 330/3/3 328/3/3 327/3/3
f 331/2/3 329/2/3 328/2/3
f 331/3/3 328/3/3 330/3/3
f 332/2/3 329/2/3 331/2/3
f 338/2/3 334/2/3 333/2/3
f 339/2/3 334/2/3 338/2/3
f 340/3/3 336/3/3 335/3/3
f 341/2/3 337/2/3 336/2/3
f 341/3/3 336/3/3 340/3/3
f 342/2/3 337/2/3 341/2/3
f 346/2/4 347/2/4 348/2/4
f 346/2/4 348/2/4 350/2/4
f 348/2/4 349/2/4 350/2/4
f 350/2/4 349/2/4 351/2/4
f 351/2/4 349/2/4 352/2/4
f 343/3/4 344/3/4 354/3/4
f 344/2/4 345/2/4 355/2/4
f 354/3/4 344/3/4 355/3/4
f 355/2/4 345/2/4 356/2/4
f 352/2/4 353/2/4 357/2/4
f 351/2/4 352/2/4 357/2/4
f 357/2/4 353/2/4 358/2/4
f 358/2/4 353/2/4 359/2/4
f 359/2/4 360/2/4 361/2/4
f 358/2/4 359/2/4 361/2/4
f 361/2/4 360/2/4 362/2/4
f 362/2/4 360/2/4 363/2/4
f 363/2/4 360/2/4 364/2/4
f 364/2/4 360/2/4 365/2/4
f 365/2/4 366/2/4 368/2/4
f 364/2/4 365/2/4 368/2/4
f 368/2/4 366/2/4 369/2/4
f 369/2/4 366/2/4 370/2/4
f 367/2/4 368/2/4 372/2/4
f 368/2/4 369/2/4 372/2/4
f 371/2/4 372/2/4 377/2/4
f 372/2/4 369/2/4 378/2/4
f 377/2/4 372/2/4 378/2/4
f 378/2/4 369/2/4 379/2/4
f 346/2/4 350/2/4 380/2/4
f 376/2/4 377/2/4 381/2/4
f 377/2/4 378/2/4 381/2/4
f 381/2/4 378/2/4 382/2/4
f 382/2/4 378/2/4 383/2/4
f 380/2/4 381/2/4 384/2/4
f 381/2/4 382/2/4 384/2/4
f 384/2/4 382/2/4 385/2/4
f 373/3/4 374/3/4 386/3/4
f 374/2/4 375/2/4 387/2/4
f 386/3/4 374/3/4 387/3/4
f 387/2/4 375/2/4 388/2/4
f 346/2/4 380/2/4 389/2/4
f 380/2/4 384/2/4 389/2/4
f 389/2/4 384/2/4 390/2/4
f 391/1/4 392/1/4 393/1/4
f 393/1/4 394/1/4 395/1/4
f 395/1/4 396/1/4 397/1/4
f 395/1/4 397/1/4 399/1/4
f 397/1/4 398/1/4 399/1/4
f 399/1/4 398/1/4 400/1/4
f 393/1/4 395/1/4 401/1/4
f 395/1/4 399/1/4 401/1/4
f 401/1/4 399/1/4 402/1/4
f 391/1/4 393/1/4 403/1/4
f 393/1/4 401/1/4 403/1/4
f 403/1/4 401/1/4 404/1/4
f 391/1/4 403/1/4 405/1/4
f 405/1/4 403/1/4 406/1/4
f 407/2/4 408/2/4 409/2/4
f 409/2/4 408/2/4 410/2/4
f 411/1/4 412/1/4 413/1/4
f 413/1/4 412/1/4 414/1/4
f 415/1/4 416/1/4 417/1/4
f 417/1/4 416/1/4 418/1/4
f 419/2/4 420/2/4 421/2/4
f 421/2/4 420/2/4 422/2/4
f 423/1/4 424/1/4 425/1/4
f 425/1/4 424/1/4 426/1/4
f 427/2/4 428/2/4 429/2/4
f 429/2/4 428/2/4 430/2/4
f 432/2/4 433/2/4 434/2/4
f 431/3/4 432/3/4 436/3/4
f 434/2/4 435/2/4 437/2/4
f 436/3/4 432/3/4 437/3/4
f 432/2/4 434/2/4 437/2/4
f 437/2/4 435/2/4 438/2/4
f 438/2/4 435/2/4 441/2/4
f 441/2/4 435/2/4 442/2/4
f 440/2/4 441/2/4 442/2/4
f 442/2/4 435/2/4 443/2/4
f 439/3/4 440/3/4 444/3/4
f 440/2/4 442/2/4 445/2/4
f 444/3/4 440/3/4 445/3/4
f 445/2/4 442/2/4 446/2/4
f 451/3/5 448/3/5 447/3/5
f 452/3/5 448/3/5 451/3/5
f 453/3/5 450/3/5 449/3/5
f 454/3/5 450/3/5 453/3/5
f 459/3/5 456/3/5 455/3/5
f 460/3/5 456/3/5 459/3/5
f 461/3/5 458/3/5 457/3/5
f 462/3/5 458/3/5 461/3/5
f 466/2/5 464/2/5 463/2/5
f 467/2/5 464/2/5 466/2/5
f 469/2/5 466/2/5 465/2/5
f 469/2/5 468/2/5 467/2/5
f 469/2/5 467/2/5 466/2/5
f 470/2/5 468/2/5 469/2/5
f 471/2/5 468/2/5 470/2/5
f 472/2/5 468/2/5 471/2/5
f 473/2/5 471/2/5 470/2/5
f 474/2/5 471/2/5 473/2/5
f 477/2/5 476/2/5 475/2/5
f 478/2/5 476/2/5 477/2/5
f 481/1/5 480/1/5 479/1/5
f 482/1/5 480/1/5 481/1/5
f 487/2/5 484/2/5 483/2/5
f 488/2/5 484/2/5 487/2/5
f 489/2/5 486/2/5 485/2/5
f 490/2/5 486/2/5 489/2/5
f 499/2/5 492/2/5 491/2/5
f 500/2/5 492/2/5 499/2/5
f 501/2/5 494/2/5 493/2/5
f 502/2/5 494/2/5 501/2/5
f 503/2/5 496/2/5 495/2/5
f 504/2/5 496/2/5 503/2/5
f 505/2/5 498/2/5 497/2/5
f 506/2/5 498/2/5 505/2/5
f 507/2/6 508/2/6 509/2/6
f 509/2/6 508/2/6 510/2/6
f 511/2/6 512/2/6 515/2/6
f 515/2/6 512/2/6 516/2/6
f 513/2/6 514/2/6 517/2/6
f 517/2/6 514/2/6 518/2/6
f 519/2/6 520/2/6 521/2/6
f 521/2/6 520/2/6 522/2/6
f 519/2/6 521/2/6 523/2/6
f 523/2/6 521/2/6 524/2/6
f 522/2/6 520/2/6 525/2/6
f 525/2/6 520/2/6 526/2/6
f 519/2/6 523/2/6 527/2/6
f 526/2/6 520/2/6 530/2/6
f 527/2/6 528/2/6 531/2/6
f 519/2/6 527/2/6 531/2/6
f 531/2/6 528/2/6 532/2/6
f 532/2/6 528/2/6 533/2/6
f 529/2/6 530/2/6 534/2/6
f 530/2/6 520/2/6 535/2/6
f 534/2/6 530/2/6 535/2/6
f 535/2/6 520/2/6 536/2/6
f 532/2/6 533/2/6 537/2/6
f 533/2/6 534/2/6 537/2/6
f 534/2/6 535/2/6 537/2/6
f 537/2/6 535/2/6 538/2/6
f 539/2/6 540/2/6 551/2/6
f 551/2/6 540/2/6 552/2/6
f 541/2/6 542/2/6 553/2/6
f 553/2/6 542/2/6 554/2/6
f 543/2/6 544/2/6 555/2/6
f 555/2/6 544/2/6 556/2/6
f 545/2/6 546/2/6 557/2/6
f 557/2/6 546/2/6 558/2/6
f 547/2/6 548/2/6 559/2/6
f 559/2/6 548/2/6 560/2/6
f 549/2/6 550/2/6 561/2/6
f 561/2/6 550/2/6 562/2/6
f 563/1/6 564/1/6 566/1/6
f 566/1/6 564/1/6 567/1/6
f 565/1/6 566/1/6 569/1/6
f 567/1/6 568/1/6 569/1/6
f 566/1/6 567/1/6 569/1/6
f 569/1/6 568/1/6 570/1/6
f 570/1/6 568/1/6 571/1/6
f 571/1/6 568/1/6 572/1/6
f 570/1/6 571/1/6 573/1/6
f 573/1/6 571/1/6 574/1/6
f 575/2/6 576/2/6 579/2/6
f 579/2/6 576/2/6 580/2/6
f 577/2/6 578/2/6 585/2/6
f 585/2/6 578/2/6 586/2/6
f 581/1/6 582/1/6 587/1/6
f 587/1/6 582/1/6 588/1/6
f 583/1/6 584/1/6 589/1/6
f 589/1/6 584/1/6 590/1/6
f 591/1/6 592/1/6 595/1/6
f 595/1/6 592/1/6 596/1/6
f 593/1/6 594/1/6 597/1/6
f 597/1/6 594/1/6 598/1/6
f 599/2/6 600/2/6 611/2/6
f 611/2/6 600/2/6 612/2/6
f 603/1/6 604/1/6 615/1/6
f 615/1/6 604/1/6 616/1/6
f 605/1/6 606/1/6 617/1/6
f 617/1/6 606/1/6 618/1/6
f 607/1/6 608/1/6 619/1/6
f 619/1/6 608/1/6 620/1/6
f 609/1/6 610/1/6 621/1/6
f 621/1/6 610/1/6 622/1/6
f 601/2/6 602/2/6 625/2/6
f 625/2/6 602/2/6 626/2/6
f 613/1/6 614/1/6 627/1/6
f 627/1/6 614/1/6 628/1/6
f 623/1/6 624/1/6 629/1/6
f 629/1/6 624/1/6 630/1/6
f 631/2/6 632/2/6 635/2/6
f 635/2/6 632/2/6 636/2/6
f 633/2/6 634/2/6 639/2/6
f 639/2/6 634/2/6 640/2/6
f 637/1/6 638/1/6 641/1/6
f 641/1/6 638/1/6 642/1/6
f 643/2/6 644/2/6 647/2/6
f 647/2/6 644/2/6 648/2/6
f 645/2/6 646/2/6 649/2/6
f 649/2/6 646/2/6 650/2/6
f 651/2/6 652/2/6 653/2/6
f 653/2/6 652/2/6 654/2/6
