# Goxel 0.15.1
v 0 0 1 1,000000 1,000000 1,000000
v 1 0 1 1,000000 1,000000 1,000000
v 1 1 1 1,000000 1,000000 1,000000
v 0 1 1 1,000000 1,000000 1,000000
v 1 0 0 1,000000 1,000000 1,000000
v 0 0 0 1,000000 1,000000 1,000000
v 0 1 0 1,000000 1,000000 1,000000
v 1 1 0 1,000000 1,000000 1,000000
v 1 2 1 1,000000 1,000000 1,000000
v 0 2 1 1,000000 1,000000 1,000000
v 0 2 0 1,000000 1,000000 1,000000
v 1 2 0 1,000000 1,000000 1,000000
v 1 3 1 1,000000 1,000000 1,000000
v 0 3 1 1,000000 1,000000 1,000000
v 0 3 0 1,000000 1,000000 1,000000
v 1 3 0 1,000000 1,000000 1,000000
v 1 4 1 1,000000 1,000000 1,000000
v 0 4 1 1,000000 1,000000 1,000000
v 1 4 0 1,000000 1,000000 1,000000
v 0 4 0 1,000000 1,000000 1,000000
v 0 0 -4 1,000000 1,000000 1,000000
v 1 0 -4 1,000000 1,000000 1,000000
v 1 1 -4 1,000000 1,000000 1,000000
v 0 1 -4 1,000000 1,000000 1,000000
v 1 0 -5 1,000000 1,000000 1,000000
v 0 0 -5 1,000000 1,000000 1,000000
v 0 1 -5 1,000000 1,000000 1,000000
v 1 1 -5 1,000000 1,000000 1,000000
v 1 2 -4 1,000000 1,000000 1,000000
v 0 2 -4 1,000000 1,000000 1,000000
v 0 2 -5 1,000000 1,000000 1,000000
v 1 2 -5 1,000000 1,000000 1,000000
v 1 3 -4 1,000000 1,000000 1,000000
v 0 3 -4 1,000000 1,000000 1,000000
v 0 3 -5 1,000000 1,000000 1,000000
v 1 3 -5 1,000000 1,000000 1,000000
v 0 3 -1 1,000000 1,000000 1,000000
v 1 3 -1 1,000000 1,000000 1,000000
v 1 4 -1 1,000000 1,000000 1,000000
v 0 4 -1 1,000000 1,000000 1,000000
v 0 3 -2 1,000000 1,000000 1,000000
v 1 3 -2 1,000000 1,000000 1,000000
v 1 4 -2 1,000000 1,000000 1,000000
v 0 4 -2 1,000000 1,000000 1,000000
v 0 3 -3 1,000000 1,000000 1,000000
v 1 3 -3 1,000000 1,000000 1,000000
v 1 4 -3 1,000000 1,000000 1,000000
v 0 4 -3 1,000000 1,000000 1,000000
v 1 4 -4 1,000000 1,000000 1,000000
v 0 4 -4 1,000000 1,000000 1,000000
v 0 4 -5 1,000000 1,000000 1,000000
v 1 4 -5 1,000000 1,000000 1,000000
v -5 0 1 1,000000 1,000000 1,000000
v -4 0 1 1,000000 1,000000 1,000000
v -4 1 1 1,000000 1,000000 1,000000
v -5 1 1 1,000000 1,000000 1,000000
v -4 0 0 1,000000 1,000000 1,000000
v -5 0 0 1,000000 1,000000 1,000000
v -5 1 0 1,000000 1,000000 1,000000
v -4 1 0 1,000000 1,000000 1,000000
v -4 2 1 1,000000 1,000000 1,000000
v -5 2 1 1,000000 1,000000 1,000000
v -5 2 0 1,000000 1,000000 1,000000
v -4 2 0 1,000000 1,000000 1,000000
v -4 3 1 1,000000 1,000000 1,000000
v -5 3 1 1,000000 1,000000 1,000000
v -5 3 0 1,000000 1,000000 1,000000
v -4 3 0 1,000000 1,000000 1,000000
v -4 4 1 1,000000 1,000000 1,000000
v -5 4 1 1,000000 1,000000 1,000000
v -4 4 0 1,000000 1,000000 1,000000
v -5 4 0 1,000000 1,000000 1,000000
v -3 3 1 1,000000 1,000000 1,000000
v -3 4 1 1,000000 1,000000 1,000000
v -3 3 0 1,000000 1,000000 1,000000
v -3 4 0 1,000000 1,000000 1,000000
v -2 3 1 1,000000 1,000000 1,000000
v -2 4 1 1,000000 1,000000 1,000000
v -2 3 0 1,000000 1,000000 1,000000
v -2 4 0 1,000000 1,000000 1,000000
v -1 3 1 1,000000 1,000000 1,000000
v -1 4 1 1,000000 1,000000 1,000000
v -1 3 0 1,000000 1,000000 1,000000
v -1 4 0 1,000000 1,000000 1,000000
v -5 0 -4 1,000000 1,000000 1,000000
v -4 0 -4 1,000000 1,000000 1,000000
v -4 1 -4 1,000000 1,000000 1,000000
v -5 1 -4 1,000000 1,000000 1,000000
v -4 0 -5 1,000000 1,000000 1,000000
v -5 0 -5 1,000000 1,000000 1,000000
v -5 1 -5 1,000000 1,000000 1,000000
v -4 1 -5 1,000000 1,000000 1,000000
v -4 2 -4 1,000000 1,000000 1,000000
v -5 2 -4 1,000000 1,000000 1,000000
v -5 2 -5 1,000000 1,000000 1,000000
v -4 2 -5 1,000000 1,000000 1,000000
v -4 3 -4 1,000000 1,000000 1,000000
v -5 3 -4 1,000000 1,000000 1,000000
v -5 3 -5 1,000000 1,000000 1,000000
v -4 3 -5 1,000000 1,000000 1,000000
v -5 3 -1 1,000000 1,000000 1,000000
v -4 3 -1 1,000000 1,000000 1,000000
v -4 4 -1 1,000000 1,000000 1,000000
v -5 4 -1 1,000000 1,000000 1,000000
v -3 3 -1 1,000000 1,000000 1,000000
v -3 4 -1 1,000000 1,000000 1,000000
v -2 3 -1 1,000000 1,000000 1,000000
v -2 4 -1 1,000000 1,000000 1,000000
v -1 3 -1 1,000000 1,000000 1,000000
v -1 4 -1 1,000000 1,000000 1,000000
v -5 3 -2 1,000000 1,000000 1,000000
v -4 3 -2 1,000000 1,000000 1,000000
v -4 4 -2 1,000000 1,000000 1,000000
v -5 4 -2 1,000000 1,000000 1,000000
v -3 3 -2 1,000000 1,000000 1,000000
v -3 4 -2 1,000000 1,000000 1,000000
v -2 3 -2 1,000000 1,000000 1,000000
v -2 4 -2 1,000000 1,000000 1,000000
v -1 3 -2 1,000000 1,000000 1,000000
v -1 4 -2 1,000000 1,000000 1,000000
v -5 3 -3 1,000000 1,000000 1,000000
v -4 3 -3 1,000000 1,000000 1,000000
v -4 4 -3 1,000000 1,000000 1,000000
v -5 4 -3 1,000000 1,000000 1,000000
v -3 3 -3 1,000000 1,000000 1,000000
v -3 4 -3 1,000000 1,000000 1,000000
v -2 3 -3 1,000000 1,000000 1,000000
v -2 4 -3 1,000000 1,000000 1,000000
v -1 3 -3 1,000000 1,000000 1,000000
v -1 4 -3 1,000000 1,000000 1,000000
v -4 4 -4 1,000000 1,000000 1,000000
v -5 4 -4 1,000000 1,000000 1,000000
v -3 3 -4 1,000000 1,000000 1,000000
v -3 4 -4 1,000000 1,000000 1,000000
v -2 3 -4 1,000000 1,000000 1,000000
v -2 4 -4 1,000000 1,000000 1,000000
v -1 3 -4 1,000000 1,000000 1,000000
v -1 4 -4 1,000000 1,000000 1,000000
v -5 4 -5 1,000000 1,000000 1,000000
v -4 4 -5 1,000000 1,000000 1,000000
v -3 3 -5 1,000000 1,000000 1,000000
v -3 4 -5 1,000000 1,000000 1,000000
v -2 3 -5 1,000000 1,000000 1,000000
v -2 4 -5 1,000000 1,000000 1,000000
v -1 3 -5 1,000000 1,000000 1,000000
v -1 4 -5 1,000000 1,000000 1,000000
vn 0 0 1
vn 0 0 -1
vn 0 -1 -0
vn 1 0 0
vn -1 0 0
vn 0 1 0
f 1//1 2//1 3//1 4//1
f 5//2 6//2 7//2 8//2
f 1//3 6//3 5//3 2//3
f 2//4 5//4 8//4 3//4
f 1//5 4//5 7//5 6//5
f 4//1 3//1 9//1 10//1
f 8//2 7//2 11//2 12//2
f 3//4 8//4 12//4 9//4
f 4//5 10//5 11//5 7//5
f 10//1 9//1 13//1 14//1
f 12//2 11//2 15//2 16//2
f 9//4 12//4 16//4 13//4
f 10//5 14//5 15//5 11//5
f 14//1 13//1 17//1 18//1
f 17//6 19//6 20//6 18//6
f 13//4 16//4 19//4 17//4
f 21//1 22//1 23//1 24//1
f 25//2 26//2 27//2 28//2
f 21//3 26//3 25//3 22//3
f 22//4 25//4 28//4 23//4
f 21//5 24//5 27//5 26//5
f 24//1 23//1 29//1 30//1
f 28//2 27//2 31//2 32//2
f 23//4 28//4 32//4 29//4
f 24//5 30//5 31//5 27//5
f 30//1 29//1 33//1 34//1
f 32//2 31//2 35//2 36//2
f 29//4 32//4 36//4 33//4
f 30//5 34//5 35//5 31//5
f 15//3 37//3 38//3 16//3
f 19//6 39//6 40//6 20//6
f 16//4 38//4 39//4 19//4
f 37//3 41//3 42//3 38//3
f 39//6 43//6 44//6 40//6
f 38//4 42//4 43//4 39//4
f 41//3 45//3 46//3 42//3
f 43//6 47//6 48//6 44//6
f 42//4 46//4 47//4 43//4
f 45//3 34//3 33//3 46//3
f 47//6 49//6 50//6 48//6
f 46//4 33//4 49//4 47//4
f 36//2 35//2 51//2 52//2
f 49//6 52//6 51//6 50//6
f 33//4 36//4 52//4 49//4
f 53//1 54//1 55//1 56//1
f 57//2 58//2 59//2 60//2
f 53//3 58//3 57//3 54//3
f 54//4 57//4 60//4 55//4
f 53//5 56//5 59//5 58//5
f 56//1 55//1 61//1 62//1
f 60//2 59//2 63//2 64//2
f 55//4 60//4 64//4 61//4
f 56//5 62//5 63//5 59//5
f 62//1 61//1 65//1 66//1
f 64//2 63//2 67//2 68//2
f 61//4 64//4 68//4 65//4
f 62//5 66//5 67//5 63//5
f 66//1 65//1 69//1 70//1
f 69//6 71//6 72//6 70//6
f 66//5 70//5 72//5 67//5
f 65//1 73//1 74//1 69//1
f 65//3 68//3 75//3 73//3
f 74//6 76//6 71//6 69//6
f 73//1 77//1 78//1 74//1
f 73//3 75//3 79//3 77//3
f 78//6 80//6 76//6 74//6
f 77//1 81//1 82//1 78//1
f 77//3 79//3 83//3 81//3
f 82//6 84//6 80//6 78//6
f 81//1 14//1 18//1 82//1
f 81//3 83//3 15//3 14//3
f 18//6 20//6 84//6 82//6
f 85//1 86//1 87//1 88//1
f 89//2 90//2 91//2 92//2
f 85//3 90//3 89//3 86//3
f 86//4 89//4 92//4 87//4
f 85//5 88//5 91//5 90//5
f 88//1 87//1 93//1 94//1
f 92//2 91//2 95//2 96//2
f 87//4 92//4 96//4 93//4
f 88//5 94//5 95//5 91//5
f 94//1 93//1 97//1 98//1
f 96//2 95//2 99//2 100//2
f 93//4 96//4 100//4 97//4
f 94//5 98//5 99//5 95//5
f 67//3 101//3 102//3 68//3
f 71//6 103//6 104//6 72//6
f 67//5 72//5 104//5 101//5
f 68//3 102//3 105//3 75//3
f 76//6 106//6 103//6 71//6
f 75//3 105//3 107//3 79//3
f 80//6 108//6 106//6 76//6
f 79//3 107//3 109//3 83//3
f 84//6 110//6 108//6 80//6
f 83//3 109//3 37//3 15//3
f 20//6 40//6 110//6 84//6
f 101//3 111//3 112//3 102//3
f 103//6 113//6 114//6 104//6
f 101//5 104//5 114//5 111//5
f 102//3 112//3 115//3 105//3
f 106//6 116//6 113//6 103//6
f 105//3 115//3 117//3 107//3
f 108//6 118//6 116//6 106//6
f 107//3 117//3 119//3 109//3
f 110//6 120//6 118//6 108//6
f 109//3 119//3 41//3 37//3
f 40//6 44//6 120//6 110//6
f 111//3 121//3 122//3 112//3
f 113//6 123//6 124//6 114//6
f 111//5 114//5 124//5 121//5
f 112//3 122//3 125//3 115//3
f 116//6 126//6 123//6 113//6
f 115//3 125//3 127//3 117//3
f 118//6 128//6 126//6 116//6
f 117//3 127//3 129//3 119//3
f 120//6 130//6 128//6 118//6
f 119//3 129//3 45//3 41//3
f 44//6 48//6 130//6 120//6
f 121//3 98//3 97//3 122//3
f 123//6 131//6 132//6 124//6
f 121//5 124//5 132//5 98//5
f 122//3 97//3 133//3 125//3
f 126//6 134//6 131//6 123//6
f 125//3 133//3 135//3 127//3
f 128//6 136//6 134//6 126//6
f 127//3 135//3 137//3 129//3
f 130//6 138//6 136//6 128//6
f 129//3 137//3 34//3 45//3
f 48//6 50//6 138//6 130//6
f 100//2 99//2 139//2 140//2
f 131//6 140//6 139//6 132//6
f 98//5 132//5 139//5 99//5
f 141//2 100//2 140//2 142//2
f 97//3 100//3 141//3 133//3
f 134//6 142//6 140//6 131//6
f 143//2 141//2 142//2 144//2
f 133//3 141//3 143//3 135//3
f 136//6 144//6 142//6 134//6
f 145//2 143//2 144//2 146//2
f 135//3 143//3 145//3 137//3
f 138//6 146//6 144//6 136//6
f 35//2 145//2 146//2 51//2
f 137//3 145//3 35//3 34//3
f 50//6 51//6 146//6 138//6
